<svg width="160" height="160" viewBox="0 0 160 160" fill="none" xmlns="http://www.w3.org/2000/svg">
<g clip-path="url(#clip0_1_2)">
<rect width="160" height="160" rx="43" fill="url(#paint0_linear_1_2)"/>
<path fill-rule="evenodd" clip-rule="evenodd" d="M56.7667 78.9555C51.5052 76.0876 44.9797 80.0657 45.744 85.6763L48.1778 103.384C48.3158 104.392 48.8545 105.315 49.6887 105.975L79.5 129.555L83.5152 126.377C83.9552 126.028 84.4651 125.764 85.0157 125.598C85.5663 125.432 86.1468 125.368 86.724 125.409C87.3013 125.451 87.8641 125.598 88.3802 125.841C88.8963 126.084 89.3557 126.418 89.732 126.826C90.1084 127.233 90.3944 127.705 90.5737 128.215C90.753 128.724 90.8221 129.262 90.7771 129.796C90.732 130.33 90.5737 130.851 90.3112 131.329C90.0487 131.807 89.6871 132.232 89.247 132.581L82.363 138.022C81.5647 138.653 80.5496 139 79.5 139C78.4504 139 77.4352 138.653 76.637 138.022L43.951 112.184C41.4506 110.205 39.8367 107.434 39.4243 104.413L36.9964 86.7049C35.3033 74.3625 49.6651 65.6118 61.2464 71.9245L79.5 81.8833L97.7595 71.9245C109.335 65.6118 123.697 74.3625 122.004 86.7049L119.576 104.413C119.162 107.435 117.546 110.206 115.043 112.184L111.751 114.785C111.314 115.151 110.802 115.432 110.245 115.611C109.689 115.791 109.099 115.865 108.511 115.83C107.923 115.795 107.348 115.651 106.821 115.406C106.295 115.162 105.826 114.823 105.443 114.408C105.06 113.993 104.771 113.512 104.593 112.992C104.415 112.472 104.351 111.924 104.405 111.381C104.459 110.838 104.63 110.31 104.909 109.829C105.187 109.349 105.567 108.924 106.025 108.582L109.317 105.975C110.151 105.315 110.69 104.392 110.828 103.384L113.256 85.6763C114.02 80.0711 107.495 76.0876 102.233 78.9555L81.7339 90.1387C81.056 90.5082 80.2837 90.703 79.497 90.703C78.7104 90.703 77.9381 90.5082 77.2602 90.1387L56.7667 78.9555ZM79.5 57.3727C72.8511 57.3727 69.2121 61.2202 69.2121 64.1752C69.2121 65.2576 68.7476 66.2958 67.9207 67.0612C67.0938 67.8266 65.9724 68.2566 64.803 68.2566C63.6337 68.2566 62.5122 67.8266 61.6853 67.0612C60.8585 66.2958 60.3939 65.2576 60.3939 64.1752C60.3939 55.1089 69.9176 49.2098 79.5 49.2098C89.0824 49.2098 98.606 55.1089 98.606 64.1752C98.606 65.2576 98.1415 66.2958 97.3146 67.0612C96.4878 67.8266 95.3663 68.2566 94.1969 68.2566C93.0276 68.2566 91.9061 67.8266 91.0793 67.0612C90.2524 66.2958 89.7879 65.2576 89.7879 64.1752C89.7879 61.2202 86.1489 57.3727 79.5 57.3727Z" fill="url(#paint1_linear_1_2)"/>
<path fill-rule="evenodd" clip-rule="evenodd" d="M79.5 43.7678C64.7325 43.7678 54.5151 52.4913 54.5151 61.4542C54.5151 62.5367 54.0506 63.5748 53.2238 64.3402C52.3969 65.1056 51.2754 65.5357 50.1061 65.5357C48.9367 65.5357 47.8152 65.1056 46.9884 64.3402C46.1615 63.5748 45.697 62.5367 45.697 61.4542C45.697 46.38 61.8048 35.6049 79.5 35.6049C97.1951 35.6049 113.303 46.38 113.303 61.4542C113.303 62.5367 112.838 63.5748 112.012 64.3402C111.185 65.1056 110.063 65.5357 108.894 65.5357C107.725 65.5357 106.603 65.1056 105.776 64.3402C104.949 63.5748 104.485 62.5367 104.485 61.4542C104.485 52.4913 94.2675 43.7678 79.5 43.7678Z" fill="url(#paint2_linear_1_2)"/>
<path fill-rule="evenodd" clip-rule="evenodd" d="M79.5 30.1629C56.6139 30.1629 39.8182 43.7569 39.8182 58.7332C39.8182 59.8157 39.3537 60.8538 38.5268 61.6192C37.6999 62.3847 36.5785 62.8147 35.4091 62.8147C34.2397 62.8147 33.1183 62.3847 32.2914 61.6192C31.4645 60.8538 31 59.8157 31 58.7332C31 37.6456 53.6804 22 79.5 22C105.314 22 128 37.6456 128 58.7332C128 59.8157 127.535 60.8538 126.709 61.6192C125.882 62.3847 124.76 62.8147 123.591 62.8147C122.422 62.8147 121.3 62.3847 120.473 61.6192C119.646 60.8538 119.182 59.8157 119.182 58.7332C119.182 43.7569 102.386 30.1629 79.5 30.1629Z" fill="url(#paint3_linear_1_2)"/>
</g>
<defs>
<linearGradient id="paint0_linear_1_2" x1="80" y1="0" x2="80" y2="160" gradientUnits="userSpaceOnUse">
<stop stop-color="#53C6F7"/>
<stop offset="1" stop-color="#A0A5A7"/>
</linearGradient>
<linearGradient id="paint1_linear_1_2" x1="79.5" y1="49.2098" x2="79.5" y2="139" gradientUnits="userSpaceOnUse">
<stop stop-color="#1E55DA"/>
<stop offset="1" stop-color="#9800F6"/>
</linearGradient>
<linearGradient id="paint2_linear_1_2" x1="79.5" y1="35.6049" x2="79.5" y2="65.5357" gradientUnits="userSpaceOnUse">
<stop stop-color="#FF01A9"/>
<stop offset="0.9999" stop-color="#A145B8"/>
<stop offset="1" stop-color="white"/>
</linearGradient>
<linearGradient id="paint3_linear_1_2" x1="79.5" y1="22" x2="79.5" y2="62.8147" gradientUnits="userSpaceOnUse">
<stop stop-color="#ED1414"/>
<stop offset="0.9999" stop-color="#15347C"/>
<stop offset="1" stop-color="#29979E"/>
</linearGradient>
<clipPath id="clip0_1_2">
<rect width="160" height="160" rx="43" fill="white"/>
</clipPath>
</defs>
</svg>
